<svg xmlns="http://www.w3.org/2000/svg" viewBox="0 0 64 64" role="img" aria-label="Sun-3Q">
  <defs>
    <linearGradient id="g" x1="0" y1="0" x2="1" y2="1">
      <stop offset="0" stop-color="#3c83f6" />
      <stop offset="1" stop-color="#22c55e" />
    </linearGradient>
  </defs>
  <rect x="6" y="6" width="52" height="52" rx="14" fill="url(#g)" />
  <path d="M22 28c0-6 4.5-10 10-10s10 4 10 10c0 3.6-1.7 6.5-4.5 8.3-2.7 1.8-3.9 3.2-3.9 6.7v1.2h-3.2v-1.4c0-4.6 1.8-6.9 4.9-9 2.2-1.5 3.4-3.2 3.4-5.8 0-4.3-3-6.9-7-6.9s-7 2.6-7 6.9H22z" fill="#fff"/>
  <circle cx="32" cy="48.5" r="2.4" fill="#fff"/>
</svg>
